<svg width="54" height="54" viewBox="0 0 54 54" fill="none" xmlns="http://www.w3.org/2000/svg">
<path opacity="0.1" fill-rule="evenodd" clip-rule="evenodd" d="M54 27C54 41.9117 41.9117 54 27 54C12.0883 54 0 41.9117 0 27C0 12.0883 12.0883 0 27 0C41.9117 0 54 12.0883 54 27ZM27 51C40.2548 51 51 40.2548 51 27C51 13.7452 40.2548 3 27 3C13.7452 3 3 13.7452 3 27C3 40.2548 13.7452 51 27 51Z" fill="#283645"/>
<path d="M34.7035 21.202L32.3269 32.4099C32.1475 33.2007 31.68 33.3976 31.0157 33.0252L27.3943 30.3567L25.6472 32.0375C25.4537 32.231 25.2923 32.3924 24.9193 32.3924L25.1798 28.7047L31.891 22.6404C32.1829 22.3805 31.8274 22.2359 31.4376 22.4964L23.1407 27.7209L19.5688 26.6026C18.792 26.3602 18.778 25.8258 19.7308 25.4529L33.7016 20.0703C34.3485 19.8279 34.9144 20.2143 34.7035 21.2026V21.202Z" fill="#D22856"/>
</svg>
